# xmcd
#
# Track frame offsets:
#	150
#	8470
#	19977
#	29055
#	42087
#	51642
#	60150
#	74462
#	85892
#	95932
#	102072
#	121535
#	134475
#	162717
#	185765
#	204020
#	219595
#	238012
#	252377
#	277217
#	289205
#	299352
#
# Disc length: 4161 seconds
#
# Revision: 0
# Processed by: cddbd v1.5.2PL0 Copyright (c) Steve Scherf et al.
# Submitted via: dBpowerAMP V4.0
#
DISCID=53103f16
DTITLE=Various Artist - Blueskvarter Chicago 1964 Vol 3 CD1
DYEAR=1900
DGENRE=Chicago Blues
TTITLE0=Snooks Eaglin - Yours Truly
TTITLE1=Snooks Eaglin - Pinetop's Boogie Woogie
TTITLE2=Snooks Eaglin - My Babe
TTITLE3=Snooks Eaglin - Let Me Go Home, Whiskey
TTITLE4=Snooks Eaglin - Careless Love
TTITLE5=Snooks Eaglin - Rock Island Line
TTITLE6=Snooks Eaglin - C.C. Rider
TTITLE7=Snooks Eaglin - I'm Looking For A Woman
TTITLE8=Snooks Eaglin - Hello Dolly
TTITLE9=Snooks Eaglin - Lonesome Road
TTITLE10=Babe Stowall - Good Morning Blues
TTITLE11=Babe Stowall - Candy Man
TTITLE12=Babe Stowall - Fo' Day Blues
TTITLE13=Babe Stowall - Gonna Move To Kansas City
TTITLE14=Johnny Moment - Keep Your Business To Yourself
TTITLE15=Johnny Moment - You Got To How To Treat Someone
TTITLE16=Will Shade - I Got The Blues So Bad
TTITLE17=Will Shade - Can't Stand It
TTITLE18=Fury Lewis - Baby , I Know You Don't Love Me
TTITLE19=Earl Bell - Travelin' Man
TTITLE20=Earl Bell - Terraplane Blues
TTITLE21=Moose Williams - Mother Keep Your Lightning Burning High In The Winter
EXTD=I rule my webname is mike haggar/the horny antilope
EXTT0=
EXTT1=
EXTT2=
EXTT3=
EXTT4=
EXTT5=
EXTT6=
EXTT7=
EXTT8=
EXTT9=
EXTT10=
EXTT11=
EXTT12=
EXTT13=
EXTT14=
EXTT15=
EXTT16=
EXTT17=
EXTT18=
EXTT19=
EXTT20=
EXTT21=
PLAYORDER=
